#!OML:ASF \\sashay\E\Suitcase\Project 1\Capture day 1\Session 1\Male1.ASF
:FULLY-SPECIFIED
:DEGREES
358
root 1.38598 17.2848 -22.8038 2.53498 4.21986 3.76551
lowerback 4.51482 -0.36132 -8.06336
upperback -0.410397 -0.844011 2.8086
thorax -2.81189 -0.275232 7.55993
lowerneck -16.2719 -1.2158 -6.84979
upperneck 20.1476 1.58698 -6.31599
head 9.09634 -0.479638 -0.834707
rclavicle 1.96797e-014 1.82882e-014
rhumerus -34.0038 -26.0579 -59.6737
rradius 17.9194
rwrist -1.18095
rhand -16.9041 24.3379
rfingers 7.12502
rthumb 9.32792 -5.43576
lclavicle 1.96797e-014 1.82882e-014
lhumerus -35.3984 7.8143 82.9545
lradius 40.8616
lwrist -3.74352
lhand -2.57597 40.2615
lfingers 7.12502
lthumb 23.1209 68.8941
rfemur -20.487 -3.42301 14.8782
rtibia 58.0082
rfoot -18.9954 -7.74085
rtoes 9.10038
lfemur -11.2613 -4.52296 -29.8561
ltibia 27.3495
lfoot -18.5168 0.497421
ltoes 8.85784
359
root 1.38662 17.2763 -22.7017 2.46496 4.38477 3.75865
lowerback 4.59193 -0.502525 -7.90226
upperback -0.325522 -1.02892 2.7687
thorax -2.73413 -0.377389 7.43579
lowerneck -15.8993 -1.21314 -7.0207
upperneck 19.4405 1.49637 -6.13978
head 8.78015 -0.476053 -0.747183
rclavicle -1.34677e-014 3.02153e-014
rhumerus -34.5279 -26.6141 -59.2734
rradius 17.3738
rwrist -0.320544
rhand -17.7966 23.7245
rfingers 7.12502
rthumb 8.46659 -6.08575
lclavicle -1.34677e-014 3.02153e-014
lhumerus -35.3073 7.92144 82.8067
lradius 41.254
lwrist -3.37479
lhand -3.02543 41.7982
lfingers 7.12502
lthumb 22.6896 70.4843
rfemur -21.2578 -3.16302 14.7779
rtibia 57.2697
rfoot -19.5515 -7.8342
rtoes 8.04081
lfemur -10.7869 -4.71723 -29.8696
ltibia 27.4918
lfoot -18.9428 0.631322
ltoes 8.77631
360
root 1.38221 17.2614 -22.6141 2.61851 4.70518 3.85913
lowerback 4.79303 -0.779682 -7.91757
upperback -0.347187 -1.41577 2.77803
thorax -2.79728 -0.566927 7.48416
lowerneck -16.315 -1.19386 -6.89187
upperneck 19.5388 1.60197 -6.41222
head 8.89479 -0.459606 -0.852398
rclavicle 2.1916e-014 -1.66979e-014
rhumerus -35.065 -27.3811 -58.6735
rradius 16.869
rwrist 0.872214
rhand -17.4137 23.3114
rfingers 7.12502
rthumb 8.83612 -6.48358
lclavicle 2.1916e-014 -1.66979e-014
lhumerus -35.2458 8.21567 82.6623
lradius 41.8447
lwrist -3.15387
lhand -2.6327 42.3621
lfingers 7.12502
lthumb 23.0664 71.0016
rfemur -22.3541 -2.74694 14.5923
rtibia 56.5136
rfoot -20.0207 -8.293
rtoes 8.57283
lfemur -10.7118 -5.14819 -29.9576
ltibia 27.6922
lfoot -19.4315 0.977603
ltoes 8.6897
361
root 1.3803 17.2554 -22.5121 2.64427 5.20508 4.00389
lowerback 4.83218 -0.929612 -7.97793
upperback -0.397668 -1.62666 2.6811
thorax -2.83392 -0.66862 7.43024
lowerneck -16.0913 -1.17543 -6.72081
upperneck 19.4521 1.54969 -6.40149
head 8.8225 -0.461647 -0.880026
rclavicle 1.59028e-015 -7.95139e-016
rhumerus -36.0039 -26.7605 -58.769
rradius 17.1002
rwrist 0.282613
rhand -17.4002 22.7484
rfingers 7.12502
rthumb 8.84915 -7.04606
lclavicle 1.59028e-015 -7.95139e-016
lhumerus -35.6586 7.49516 82.6847
lradius 42.6633
lwrist -2.56387
lhand -2.96886 41.6606
lfingers 7.12502
lthumb 22.7438 70.34
rfemur -23.0599 -2.75896 14.2995
rtibia 55.6058
rfoot -20.4094 -8.68161
rtoes 8.08834
lfemur -10.2671 -5.31213 -30.105
ltibia 27.7613
lfoot -19.7812 0.716897
ltoes 9.34816
362
root 1.37773 17.2452 -22.4257 2.64431 5.17548 3.8639
lowerback 5.10378 -0.903273 -7.88929
upperback -0.377985 -1.6024 2.81628
thorax -2.96941 -0.650998 7.53094
lowerneck -16.1807 -1.10448 -7.04617
upperneck 19.235 1.68226 -6.21506
head 8.76196 -0.394987 -0.745905
rclavicle -1.12313e-014 -2.94201e-014
rhumerus -36.7286 -27.6405 -57.7101
rradius 16.3736
rwrist 1.48179
rhand -17.3216 22.8265
rfingers 7.12502
rthumb 8.92504 -6.9647
lclavicle -1.12313e-014 -2.94201e-014
lhumerus -35.3854 7.73051 82.8064
lradius 42.803
lwrist -2.45028
lhand -3.70063 41.8814
lfingers 7.12502
lthumb 22.0414 70.6453
rfemur -24.0148 -2.17571 14.3461
rtibia 54.705
rfoot -20.6718 -9.02849
rtoes 8.89758
lfemur -10.0239 -5.26139 -29.9533
ltibia 27.7243
lfoot -19.5629 0.713546
ltoes 10.4749
363
root 1.37578 17.2458 -22.3229 2.58179 5.52546 3.59955
lowerback 5.2207 -1.0859 -7.51223
upperback -0.290421 -1.82871 2.84294
thorax -2.91067 -0.775887 7.35842
lowerneck -16.1995 -1.09931 -6.91055
upperneck 19.1968 1.6549 -6.22615
head 8.75169 -0.397775 -0.774651
rclavicle 9.83984e-015 -3.18055e-015
rhumerus -37.2879 -28.2412 -57.2215
rradius 15.9021
rwrist 2.26366
rhand -17.3108 21.7477
rfingers 7.12502
rthumb 8.93547 -8.0431
lclavicle 9.83984e-015 -3.18055e-015
lhumerus -35.316 7.45165 82.7442
lradius 43.3206
lwrist -2.19307
lhand -3.08669 42.37
lfingers 7.12502
lthumb 22.6308 71.0633
rfemur -24.5744 -1.71049 14.4728
rtibia 53.6491
rfoot -21.1043 -9.22163
rtoes 9.22332
lfemur -9.61066 -5.27849 -29.6592
ltibia 27.7772
lfoot -19.9754 0.700849
ltoes 9.60817
364
root 1.37164 17.2326 -22.2311 2.74955 5.99199 4.17665
lowerback 5.27547 -1.26001 -8.00532
upperback -0.315655 -2.10189 2.68681
thorax -2.90767 -0.905161 7.49551
lowerneck -16.4263 -1.00138 -6.63901
upperneck 19.169 1.82475 -6.6005
head 8.79026 -0.341524 -0.926467
rclavicle -7.7526e-015 1.03368e-014
rhumerus -38.1025 -28.4852 -56.768
rradius 15.6598
rwrist 2.961
rhand -17.4485 21.1384
rfingers 7.12502
rthumb 8.80259 -8.65805
lclavicle -7.7526e-015 1.03368e-014
lhumerus -35.4231 7.37519 82.7279
lradius 43.7406
lwrist -1.89808
lhand -3.35576 42.1078
lfingers 7.12502
lthumb 22.3725 70.8324
rfemur -25.5262 -1.92084 13.6568
rtibia 52.6788
rfoot -21.0782 -9.54324
rtoes 6.73768
lfemur -9.29087 -5.59763 -30.2603
ltibia 27.7099
lfoot -20.2599 0.671553
ltoes 9.91006
365
root 1.36701 17.2214 -22.1301 2.5752 6.18343 3.7969
lowerback 5.45278 -1.3505 -7.62641
upperback -0.235205 -2.20598 2.81017
thorax -2.91201 -0.964888 7.42097
lowerneck -16.1829 -1.10687 -6.72986
upperneck 18.8736 1.5952 -6.34573
head 8.63885 -0.410157 -0.848253
rclavicle -1.3418e-014 1.51076e-014
rhumerus -38.9054 -28.4642 -56.2728
rradius 15.296
rwrist 3.20419
rhand -17.3927 21.2149
rfingers 7.12502
rthumb 8.85637 -8.57926
lclavicle -1.3418e-014 1.51076e-014
lhumerus -35.5075 7.01055 82.7988
lradius 44.2575
lwrist -1.54726
lhand -3.47461 41.9533
lfingers 7.12502
lthumb 22.2584 70.6915
rfemur -26.0658 -1.77185 13.9456
rtibia 51.5516
rfoot -20.851 -9.74378
rtoes 5.39132
lfemur -8.64396 -5.8311 -29.8462
ltibia 27.5845
lfoot -20.4781 0.817424
ltoes 10.3649
366
root 1.36467 17.2252 -22.0394 2.63746 6.4883 3.92144
lowerback 5.57457 -1.50447 -7.63573
upperback -0.151438 -2.42023 2.77566
thorax -2.85445 -1.07776 7.40593
lowerneck -16.3836 -1.10744 -7.00091
upperneck 18.7666 1.59437 -5.97147
head 8.63234 -0.389271 -0.677923
rclavicle -4.96962e-015 1.51076e-014
rhumerus -39.5968 -29.443 -55.3828
rradius 14.978
rwrist 4.47434
rhand -17.1394 20.5313
rfingers 7.12502
rthumb 9.10081 -9.25233
lclavicle -4.96962e-015 1.51076e-014
lhumerus -35.5696 6.9828 82.7608
lradius 44.8639
lwrist -1.16622
lhand -3.38092 42.4783
lfingers 7.12502
lthumb 22.3483 71.2057
rfemur -26.6693 -1.52734 13.6213
rtibia 50.3987
rfoot -21.1028 -9.82233
rtoes 6.3168
lfemur -8.17367 -6.07886 -29.9595
ltibia 27.3159
lfoot -20.534 0.802192
ltoes 10.6174
367
root 1.36456 17.2283 -21.9426 2.65891 6.81406 3.91197
lowerback 5.58341 -1.71424 -7.37749
upperback -0.113481 -2.68509 2.7055
thorax -2.78566 -1.21886 7.19824
lowerneck -16.3176 -1.0481 -6.89833
upperneck 18.5825 1.6365 -6.0132
head 8.55745 -0.356959 -0.701315
rclavicle -2.77305e-014 3.73715e-014
rhumerus -40.4627 -29.6971 -54.8668
rradius 14.7584
rwrist 5.13484
rhand -16.9868 20.3374
rfingers 7.12502
rthumb 9.24807 -9.43977
lclavicle -2.77305e-014 3.73715e-014
lhumerus -35.5931 7.05906 82.5902
lradius 45.0242
lwrist -1.2171
lhand -3.78947 41.6853
lfingers 7.12502
lthumb 21.9561 70.4592
rfemur -27.2579 -1.24218 13.3568
rtibia 49.1181
rfoot -20.8291 -9.97485
rtoes 7.18294
lfemur -7.63902 -6.35367 -29.9508
ltibia 27.0568
lfoot -20.4409 0.728715
ltoes 10.173
368
root 1.35453 17.239 -21.8444 2.68792 6.90517 3.89562
lowerback 5.98802 -1.72686 -7.41994
upperback -0.27971 -2.73651 2.72015
thorax -3.17591 -1.21966 7.26694
lowerneck -16.2243 -1.13321 -6.58171
upperneck 18.513 1.49352 -6.34344
head 8.52166 -0.431748 -0.880179
rclavicle -7.05686e-015 -5.56597e-015
rhumerus -41.4459 -28.3816 -55.0694
rradius 15.0082
rwrist 3.9183
rhand -17.0648 20.085
rfingers 7.12502
rthumb 9.17278 -9.69547
lclavicle -7.05686e-015 -5.56597e-015
lhumerus -35.9542 6.77183 82.6096
lradius 45.489
lwrist -1.00118
lhand -4.14285 41.3243
lfingers 7.12502
lthumb 21.6168 70.1377
rfemur -27.8754 -0.8842 13.2338
rtibia 47.7313
rfoot -20.3513 -10.1694
rtoes 6.70682
lfemur -7.03483 -6.22898 -29.842
ltibia 26.5271
lfoot -20.4498 0.688793
ltoes 10.7427
369
root 1.35389 17.2455 -21.7486 2.86317 7.20434 3.78544
lowerback 5.7224 -1.83957 -7.27567
upperback -0.0887626 -2.85198 2.79619
thorax -2.80839 -1.30304 7.25308
lowerneck -16.6437 -1.1894 -6.5144
upperneck 18.4959 1.44198 -6.35351
head 8.59123 -0.459472 -0.903825
rclavicle 3.74709e-014 -1.51076e-014
rhumerus -41.8517 -28.7349 -54.6646
rradius 14.7536
rwrist 4.15851
rhand -17.008 19.3043
rfingers 7.12502
rthumb 9.22766 -10.4738
lclavicle 3.74709e-014 -1.51076e-014
lhumerus -35.7776 6.60574 82.7486
lradius 45.9008
lwrist -0.829492
lhand -3.62251 42.2923
lfingers 7.12502
lthumb 22.1164 71.0474
rfemur -28.5903 -1.06774 13.1363
rtibia 46.3302
rfoot -19.3792 -9.99478
rtoes 7.76606
lfemur -6.67131 -6.40777 -29.6785
ltibia 26.0533
lfoot -20.178 0.508078
ltoes 10.325
370
root 1.34802 17.2575 -21.6482 2.76152 7.4339 3.94239
lowerback 6.19241 -2.07554 -7.20721
upperback -0.249426 -3.20193 2.66139
thorax -3.19014 -1.45631 7.12391
lowerneck -16.1149 -0.938322 -6.80674
upperneck 18.0919 1.67333 -5.87473
head 8.35005 -0.292704 -0.659316
rclavicle 1.65985e-014 -2.94201e-014
rhumerus -43.0586 -29.3365 -53.4758
rradius 14.1196
rwrist 5.73614
rhand -16.6615 19.7766
rfingers 7.12502
rthumb 9.56191 -9.98639
lclavicle 1.65985e-014 -2.94201e-014
lhumerus -36.284 6.7014 82.4394
lradius 46.1943
lwrist -0.685659
lhand -4.27324 42.0292
lfingers 7.12502
lthumb 21.4916 70.8569
rfemur -28.8499 -0.525533 12.7431
rtibia 44.8563
rfoot -18.9917 -10.5141
rtoes 8.74293
lfemur -5.87954 -6.31623 -29.7907
ltibia 25.527
lfoot -20.4044 0.202638
ltoes 9.90911
371
root 1.34671 17.2597 -21.563 2.86027 7.87159 3.86608
lowerback 6.35779 -2.0915 -7.16832
upperback -0.280053 -3.22799 2.78245
thorax -3.30588 -1.4627 7.24335
lowerneck -16.086 -1.10404 -6.53529
upperneck 18.1794 1.478 -6.33275
head 8.38232 -0.416776 -0.881311
rclavicle -1.68967e-015 -1.51076e-014
rhumerus -44.1378 -29.6702 -52.4489
rradius 14.1198
rwrist 5.96819
rhand -16.5814 19.0049
rfingers 7.12502
rthumb 9.63926 -10.7546
lclavicle -1.68967e-015 -1.51076e-014
lhumerus -36.2291 6.35898 82.8397
lradius 46.3785
lwrist -0.704133
lhand -4.04229 42.2707
lfingers 7.12502
lthumb 21.7133 71.0729
rfemur -29.3866 -0.913655 12.631
rtibia 43.3875
rfoot -17.7852 -10.336
rtoes 8.9207
lfemur -5.37695 -6.72254 -29.676
ltibia 25.0018
lfoot -20.2381 0.086517
ltoes 10.2163
372
root 1.34593 17.2692 -21.4583 2.99522 7.98011 3.79735
lowerback 6.09881 -2.09462 -7.16747
upperback -0.0490058 -3.20768 2.85144
thorax -2.91756 -1.47823 7.29161
lowerneck -16.5241 -1.10827 -6.4614
upperneck 18.075 1.46743 -6.22957
head 8.42318 -0.409204 -0.861808
rclavicle -9.93923e-017 -1.82882e-014
rhumerus -44.5535 -29.3469 -52.4635
rradius 14.1938
rwrist 5.25021
rhand -16.2674 18.7596
rfingers 7.12502
rthumb 9.94222 -10.9856
lclavicle -9.93923e-017 -1.82882e-014
lhumerus -36.0091 6.0463 83.0377
lradius 46.7057
lwrist -0.317921
lhand -4.32045 41.7508
lfingers 7.12502
lthumb 21.4462 70.5837
rfemur -29.9247 -0.57222 12.5213
rtibia 41.9139
rfoot -16.9385 -10.873
rtoes 9.60143
lfemur -4.81694 -6.88336 -29.5654
ltibia 24.4057
lfoot -20.0937 0.117549
ltoes 10.8488
